<mxfile host="app.diagrams.net" agent="Mozilla/5.0 (Windows NT 10.0; Win64; x64) AppleWebKit/537.36 (KHTML, like Gecko) Chrome/128.0.0.0 Safari/537.36 Edg/128.0.0.0" version="24.7.7">
  <diagram name="第 1 页" id="XrFeWaXsNpC8KIBEG3kA">
    <mxGraphModel dx="1386" dy="757" grid="1" gridSize="10" guides="1" tooltips="1" connect="1" arrows="1" fold="1" page="1" pageScale="1" pageWidth="827" pageHeight="1169" math="0" shadow="0">
      <root>
        <mxCell id="0" />
        <mxCell id="1" parent="0" />
        <mxCell id="suC6dk32xTmR9eZXZHvP-3" value="" style="edgeStyle=orthogonalEdgeStyle;rounded=0;orthogonalLoop=1;jettySize=auto;html=1;" edge="1" parent="1" source="suC6dk32xTmR9eZXZHvP-1" target="suC6dk32xTmR9eZXZHvP-2">
          <mxGeometry relative="1" as="geometry" />
        </mxCell>
        <mxCell id="suC6dk32xTmR9eZXZHvP-1" value="" style="rounded=0;whiteSpace=wrap;html=1;" vertex="1" parent="1">
          <mxGeometry x="280" y="200" width="120" height="60" as="geometry" />
        </mxCell>
        <mxCell id="suC6dk32xTmR9eZXZHvP-5" value="" style="edgeStyle=orthogonalEdgeStyle;rounded=0;orthogonalLoop=1;jettySize=auto;html=1;" edge="1" parent="1" source="suC6dk32xTmR9eZXZHvP-2" target="suC6dk32xTmR9eZXZHvP-4">
          <mxGeometry relative="1" as="geometry" />
        </mxCell>
        <mxCell id="suC6dk32xTmR9eZXZHvP-2" value="" style="shape=process;whiteSpace=wrap;html=1;backgroundOutline=1;rounded=0;" vertex="1" parent="1">
          <mxGeometry x="280" y="340" width="120" height="60" as="geometry" />
        </mxCell>
        <mxCell id="suC6dk32xTmR9eZXZHvP-7" value="" style="edgeStyle=orthogonalEdgeStyle;rounded=0;orthogonalLoop=1;jettySize=auto;html=1;" edge="1" parent="1" source="suC6dk32xTmR9eZXZHvP-4" target="suC6dk32xTmR9eZXZHvP-6">
          <mxGeometry relative="1" as="geometry" />
        </mxCell>
        <mxCell id="suC6dk32xTmR9eZXZHvP-4" value="" style="rhombus;whiteSpace=wrap;html=1;rounded=0;" vertex="1" parent="1">
          <mxGeometry x="500" y="330" width="80" height="80" as="geometry" />
        </mxCell>
        <mxCell id="suC6dk32xTmR9eZXZHvP-6" value="" style="shape=tape;whiteSpace=wrap;html=1;rounded=0;" vertex="1" parent="1">
          <mxGeometry x="480" y="480" width="120" height="100" as="geometry" />
        </mxCell>
      </root>
    </mxGraphModel>
  </diagram>
</mxfile>
